<?xml version="1.0" standalone="no"?>
<!DOCTYPE svg PUBLIC "-//W3C//DTD SVG 20010904//EN"
 "http://www.w3.org/TR/2001/REC-SVG-20010904/DTD/svg10.dtd">
<svg version="1.0" xmlns="http://www.w3.org/2000/svg"
 width="305.000000pt" height="165.000000pt" viewBox="0 0 305.000000 165.000000"
 preserveAspectRatio="xMidYMid meet">

<g transform="translate(0.000000,165.000000) scale(0.100000,-0.100000)"
fill="#000000" stroke="none">
<path d="M934 1304 c-19 -19 -34 -46 -34 -58 0 -36 30 -86 57 -97 33 -12 1104
-12 1137 0 32 13 60 72 52 107 -4 15 -20 39 -36 55 l-28 29 -558 0 -557 0 -33
-36z"/>
<path d="M942 902 c-17 -16 -34 -41 -38 -56 -8 -35 12 -82 46 -106 27 -19 47
-20 575 -20 528 0 548 1 575 20 34 24 54 71 46 106 -4 15 -21 40 -38 56 l-30
28 -553 0 -553 0 -30 -28z"/>
<path d="M953 500 c-29 -12 -57 -73 -49 -106 4 -15 20 -39 36 -55 l28 -29 557
0 557 0 28 29 c16 16 32 40 36 55 8 35 -20 94 -52 107 -32 12 -1111 11 -1141
-1z"/>
</g>
</svg>
